<?xml version="1.0" standalone="no"?>
<!DOCTYPE svg PUBLIC "-//W3C//DTD SVG 20010904//EN"
 "http://www.w3.org/TR/2001/REC-SVG-20010904/DTD/svg10.dtd">
<svg version="1.0" xmlns="http://www.w3.org/2000/svg"
 width="1024.000000pt" height="1024.000000pt" viewBox="0 0 1024.000000 1024.000000"
 preserveAspectRatio="xMidYMid meet">

<g transform="translate(0.000000,1024.000000) scale(0.100000,-0.100000)"
fill="#000000" stroke="none">
<path d="M2525 7209 c-229 -22 -478 -117 -675 -257 -93 -66 -232 -203 -305
-301 -168 -223 -257 -461 -284 -761 -14 -147 -14 -1325 -1 -1480 30 -341 142
-608 361 -858 202 -230 457 -380 774 -455 l90 -21 2560 -1 c1408 -1 2603 2
2655 7 342 30 630 166 881 417 226 225 350 467 400 781 11 67 14 256 14 890 0
886 2 851 -61 1060 -29 97 -96 239 -156 331 -188 292 -492 517 -822 609 -185
51 -127 50 -2831 49 -1380 -1 -2550 -6 -2600 -10z m1675 -810 c8 -14 10 -227
8 -732 l-4 -712 -27 -100 c-50 -188 -163 -376 -305 -505 -72 -67 -110 -92
-530 -363 l-273 -176 -312 200 c-369 238 -457 301 -558 406 -131 135 -207 269
-257 452 l-27 96 -3 714 c-1 393 -1 720 2 728 4 11 203 13 1140 13 l1135 0 11
-21z m1535 -1204 l0 -910 -145 -5 c-80 -3 -172 -3 -205 0 l-60 5 -3 900 c-1
495 0 906 3 913 3 10 51 12 207 10 l203 -3 0 -910z m1325 887 c266 -70 467
-239 563 -472 54 -133 62 -180 62 -390 0 -233 -17 -316 -95 -475 -119 -245
-331 -393 -640 -450 -69 -12 -156 -15 -470 -13 l-385 3 -3 900 c-1 495 0 906
3 913 4 11 89 12 442 9 414 -3 443 -4 523 -25z"/>
<path d="M2160 5905 l0 -125 123 0 122 0 0 -323 c0 -178 2 -347 3 -375 l4 -52
114 0 114 0 0 375 0 375 150 0 150 0 0 -475 0 -475 -145 0 -145 0 0 -125 0
-125 145 0 145 0 0 -115 0 -115 120 0 120 0 0 115 0 115 140 0 140 0 0 125 0
125 -140 0 -140 0 0 475 0 475 145 0 145 0 0 -375 0 -375 120 0 120 0 0 375 0
375 120 0 120 0 0 125 0 125 -895 0 -895 0 0 -125z"/>
<path d="M6490 5200 l0 -550 183 0 c270 0 353 25 470 141 111 111 147 211 147
414 0 192 -33 296 -127 396 -112 119 -208 149 -485 149 l-188 0 0 -550z"/>
</g>
</svg>
